<svg id="Layer_1" data-name="Layer 1" xmlns="http://www.w3.org/2000/svg" viewBox="0 0 39.83 39.83"><title>ruler</title><path d="M68.41,30.09H31.59a1.5,1.5,0,0,0-1.5,1.5V68.41a1.5,1.5,0,0,0,1.5,1.5H42.86a1.5,1.5,0,0,0,1.5-1.5V63.08s0,0,0-.08,0,0,0-.07V57.16s0,0,0-.08,0,0,0-.07V51.24s0-.05,0-.07,0-.05,0-.07V45.32s0,0,0-.07,0,0,0-.07v-.82h24a1.5,1.5,0,0,0,1.5-1.5V31.59A1.5,1.5,0,0,0,68.41,30.09Zm-1.5,11.27H64.5V39.83a1.5,1.5,0,0,0-3,0v1.53H58.58V37.63a1.5,1.5,0,0,0-3,0v3.73H52.67V39.83a1.5,1.5,0,0,0-3,0v1.53H46.75V37.63a1.5,1.5,0,1,0-3,0v3.73h-.89a1.5,1.5,0,0,0-1.5,1.5v.89H37.63a1.5,1.5,0,1,0,0,3h3.73v2.92H39.83a1.5,1.5,0,0,0,0,3h1.53v2.91H37.63a1.5,1.5,0,0,0,0,3h3.73V61.5H39.83a1.5,1.5,0,0,0,0,3h1.53v2.42H33.09V33.09H66.91v8.27ZM37.63,39.67a2,2,0,1,0-2-2A2,2,0,0,0,37.63,39.67Z" transform="translate(-30.09 -30.09)"/></svg>